# xmcd
#
# Track frame offsets: 
#        150
#        15303
#        29584
#        44037
#        58232
#        72018
#        86080
#        100433
#        115783
#        129673
#        144302
#        160590
#        177019
#        193700
#        208938
#        224081
#        237234
#        250131
#        263211
#        277697
#
# Disc length: 3884 seconds
#
# Revision: 1
# Processed by: cddbd v1.5.2PL0 Copyright (c) Steve Scherf et al.
# Submitted via: ExactAudioCopyFreeDBPlugin 1.0
#
DISCID=280f2a14
DTITLE=Blind Willie Johnson, Tommy Johnson, Skip James - ABC Of The Bl
DTITLE=ues - Vol. 20 Johnson, James
DYEAR=2010
DGENRE=Blues
TTITLE0=Blind Willie Johnson - Dark Was The Night, Cold Was The Ground
TTITLE1=Blind Willie Johnson - If I Had My Way I'd Tear The Building D
TTITLE1=own
TTITLE2=Blind Willie Johnson - Praise God I'm Satisfied
TTITLE3=Blind Willie Johnson - Trouble Will Soon Be Over
TTITLE4=Blind Willie Johnson - I Know His Blood Can Make Me Whole
TTITLE5=Blind Willie Johnson - Everybody Ought To Treat A Stranger Rig
TTITLE5=ht
TTITLE6=Blind Willie Johnson - It's Nobody's Fault But Mine
TTITLE7=Blind Willie Johnson - I'm Gonna Run To The City Of Refuge
TTITLE8=Blind Willie Johnson - Keep Your Lamp Trimmed And Burning
TTITLE9=Blind Willie Johnson - Jesus Make Up My Dying Bed
TTITLE10=Tommy Johnson - Cool Drink Of Water Blues
TTITLE11=Tommy Johnson - Maggie Campbell Blues
TTITLE12=Tommy Johnson - Canned Heat Blues
TTITLE13=Tommy Johnson - Big Road Blues
TTITLE14=Tommy Johnson - Alcohol And Jake Blues
TTITLE15=Skip James - If You Haven't Any Hay Get On Down The Road
TTITLE16=Skip James - 22-20 Blues
TTITLE17=Skip James - How Long "Buck"
TTITLE18=Skip James - Cypress Grove Blues
TTITLE19=Skip James - Devil Got My Woman
EXTD=
EXTT0=
EXTT1=
EXTT2=
EXTT3=
EXTT4=
EXTT5=
EXTT6=
EXTT7=
EXTT8=
EXTT9=
EXTT10=
EXTT11=
EXTT12=
EXTT13=
EXTT14=
EXTT15=
EXTT16=
EXTT17=
EXTT18=
EXTT19=
PLAYORDER=
